<svg viewBox="0 0 497.51 113.43" xmlns="http://www.w3.org/2000/svg" xmlns:xlink="http://www.w3.org/1999/xlink" overflow="hidden"><defs></defs><g id="Layer_2"><g id="Layer_1-2"><path d="M151.02 35.36 156.76 32.51 156.76 24.64 151.02 27.21 151.02 35.36Z" stroke="#CF8B17" stroke-width="2" stroke-linejoin="round" fill="#FFAB19"/><path d="M126.13 31.15 119.4 33.9 119.4 27.71 126.13 25.17 126.13 31.15Z" stroke="#CF8B17" stroke-width="2" stroke-linejoin="round" fill="#FFAB19"/><path d="M172.49 38.48 139.29 62.42 139.29 90.05 172.49 60.92 172.49 38.48Z" stroke="#CF8B17" stroke-width="2" stroke-linejoin="round" fill="#FFAB19"/><rect x="67.12" y="61.47" width="72.17" height="28.58" stroke="#CF8B17" stroke-width="2" stroke-linejoin="round" fill="#FFAB19"/><rect x="1" y="61.47" width="44.12" height="28.45" stroke="#CF8B17" stroke-width="2" stroke-linejoin="round" fill="#FFAB19"/><path d="M191.5 24.64 172.07 24.64 167 27.71 151.14 27.71 156.76 24.64 141.46 24.64 135.27 27.71 119.4 27.71 126.15 24.64 95.54 24.64 1 61.47 45.12 61.47 32.36 67.27 55.48 67.27 67.18 61.47 139.29 61.47 191.5 24.64Z" stroke="#CF8B17" stroke-width="2" stroke-linejoin="round" fill="#FFAB19"/><path d="M267.4 1 260.73 7.25 265.01 7.25 261.98 10.35 281.49 10.35 283.35 7.25 301.69 7.25 303.09 1 267.4 1Z" stroke="#BD42BD" stroke-width="2" stroke-linejoin="round" fill="#CF63CF"/><path d="M301.69 27.1 303.09 18.29 303.09 1 301.69 7.25 301.69 27.1Z" stroke="#BD42BD" stroke-width="2" stroke-linejoin="round" fill="#CF63CF"/><path d="M231.96 58.94 241.85 46.51 241.85 15.1 231.96 23.34 231.96 58.94Z" stroke="#774DCB" stroke-width="2" stroke-linejoin="round" fill="#9966FF"/><rect x="164.88" y="23.9" width="35.86" height="18.55" stroke="#774DCB" stroke-width="2" stroke-linejoin="round" fill="#9966FF"/><path d="M199.54 24.64 200.75 23.9 200.75 42.45 199.54 43.39 199.54 24.64Z" stroke="#774DCB" stroke-width="2" stroke-linejoin="round" fill="#9966FF"/><rect x="217.05" y="23.33" width="14.9" height="19.12" stroke="#774DCB" stroke-width="2" stroke-linejoin="round" fill="#9966FF"/><path d="M335.57 37.02 337.38 51.67 337.38 96.96 335.57 78.48 335.57 37.02Z" stroke="#CF8B17" stroke-width="2" stroke-linejoin="round" fill="#FFAB19"/><path d="M334.02 70.25 332.31 60.95 270.47 60.95 269.27 63.81 254.77 63.81 256.37 60.95 249.25 60.95 243.4 70.25 252.2 70.25 250.47 73.4 265.94 73.4 267.25 70.25 334.02 70.25Z" stroke="#CF8B17" stroke-width="2" stroke-linejoin="round" fill="#FFAB19"/><rect x="243.4" y="38.02" width="8.79" height="32.57" stroke="#CF8B17" stroke-width="2" stroke-linejoin="round" fill="#FFAB19"/><path d="M253.83 35.07 255.56 32.84 255.56 65.06 253.83 68.21 253.83 35.07Z" stroke="#CF8B17" stroke-width="2" stroke-linejoin="round" fill="#FFAB19"/><rect x="268.03" y="37.47" width="65.98" height="32.78" stroke="#CF8B17" stroke-width="2" stroke-linejoin="round" fill="#FFAB19"/><path d="M255.72 41.85 247.7 53.61 247.7 85.76 255.72 70.22 255.72 41.85Z" stroke="#3373CC" stroke-width="2" stroke-linejoin="round" fill="#4C97FF"/><path d="M241.85 15.1 228.73 15.1 225.49 16.63 209.97 16.63 214.27 15.1 183.76 15.1 164.88 23.9 201.06 23.9 199.54 24.64 215.22 24.64 217.05 23.34 231.96 23.34 241.85 15.1Z" stroke="#774DCB" stroke-width="2" stroke-linejoin="round" fill="#9966FF"/><rect x="283.35" y="7.25" width="18.35" height="11.91" stroke="#BD42BD" stroke-width="2" stroke-linejoin="round" fill="#CF63CF"/><rect x="260.67" y="7.29" width="4.36" height="11.87" stroke="#BD42BD" stroke-width="2" stroke-linejoin="round" fill="#CF63CF"/><path d="M329.26 19.16 283.35 19.16 281.49 22.88 261.98 22.88 264.97 19.16 260.09 19.16 243.4 38.02 252.77 38.02 250.87 40.51 266.42 40.51 268.17 37.47 334.02 37.47 329.26 19.16Z" stroke="#CF8B17" stroke-width="2" stroke-linejoin="round" fill="#FFAB19"/><path d="M283.35 7.25 281.49 10.35 281.49 22.88 283.35 19.04 283.35 7.25Z" stroke="#BD42BD" stroke-width="2" stroke-linejoin="round" fill="#CF63CF"/><path d="M261.98 10.35 264.97 7.29 264.97 19.16 261.98 22.96 261.98 10.35Z" stroke="#BD42BD" stroke-width="2" stroke-linejoin="round" fill="#CF63CF"/><rect x="261.98" y="10.35" width="19.51" height="12.54" stroke="#BD42BD" stroke-width="2" stroke-linejoin="round" fill="#CF63CF"/><path d="M181.11 22.14 195.11 22.14C197.76 22.14 200.95 21.55 202.17 20.85L202.17 20.85C203.37 20.16 202.24 19.61 199.68 19.61L186.21 19.61C183.752 19.5905 181.31 20.0104 179 20.85L179 20.85C177.52 21.55 178.46 22.14 181.11 22.14Z" fill="#213E84"/><path d="M182.4 21.55 196.4 21.55C199.05 21.55 202.24 20.96 203.46 20.26L203.46 20.26C204.66 19.57 203.53 19.02 200.98 19.02L187.49 19.02C185.025 18.9981 182.577 19.4181 180.26 20.26L180.26 20.26C178.8 21 179.75 21.55 182.4 21.55Z" stroke="#FFFFFF" stroke-width="0.25" stroke-miterlimit="8" fill="#3869F8"/><path d="M198.77 19.75 198.77 19.75C199.87 19.75 200.35 19.99 199.84 20.29L199.84 20.29C198.886 20.6673 197.866 20.8509 196.84 20.83L196.84 20.83C195.72 20.83 195.24 20.58 195.78 20.29L195.78 20.29C196.73 19.9098 197.747 19.7261 198.77 19.75Z" fill="#FFFFFF" opacity="0.5"/><path d="M67.12 90.05 55.48 97.19 55.48 67.27 67.12 61.5 67.12 90.05Z" stroke="#CF8B17" stroke-width="2" stroke-linejoin="round" fill="#FFAB19"/><rect x="32.19" y="67.27" width="23.29" height="29.92" stroke="#CF8B17" stroke-width="2" stroke-linejoin="round" fill="#FFAB19"/><path d="M155.89 40.62 145.38 46.34 145.38 57.17 155.89 50.78 155.89 40.62Z" stroke="#BD42BD" stroke-width="2" stroke-linejoin="round" fill="#CF63CF"/><rect x="103.2" y="46.34" width="42.18" height="10.83" stroke="#BD42BD" stroke-width="2" stroke-linejoin="round" fill="#CF63CF"/><path d="M99.62 47.87 103.2 46.31 103.2 57.17 99.62 58.92 99.62 47.87Z" stroke="#BD42BD" stroke-width="2" stroke-linejoin="round" fill="#CF63CF"/><rect x="83.85" y="46.31" width="9.62" height="10.87" stroke="#BD42BD" stroke-width="2" stroke-linejoin="round" fill="#CF63CF"/><rect x="89.72" y="47.87" width="9.9" height="11.05" stroke="#BD42BD" stroke-width="2" stroke-linejoin="round" fill="#CF63CF"/><path d="M98.07 40.62 83.85 46.31 93.47 46.31 89.72 47.87 99.62 47.87 103.2 46.31 145.45 46.31 155.89 40.62 98.07 40.62Z" stroke="#BD42BD" stroke-width="2" stroke-linejoin="round" fill="#CF63CF"/><rect x="145.38" y="54.29" width="102.32" height="31.47" stroke="#3373CC" stroke-width="2" stroke-linejoin="round" fill="#4C97FF"/><path d="M255.72 42.45 218.06 42.45 216.23 44.12 199.62 44.12 201.76 42.45 165.42 42.45 145.38 54.29 185.52 54.29 180.32 58.31 200.62 58.31 205.04 54.29 247.7 54.29 255.72 42.45Z" stroke="#3373CC" stroke-width="2" stroke-linejoin="round" fill="#4C97FF"/><path d="M200.55 92.54 205.04 87.13 205.04 54.29 200.55 58.37 200.55 92.54Z" stroke="#3373CC" stroke-width="2" stroke-linejoin="round" fill="#4C97FF"/><rect x="199.54" y="24.64" width="15.68" height="19.47" stroke="#774DCB" stroke-width="2" stroke-linejoin="round" fill="#9966FF"/><path d="M215.22 24.64 217.05 23.34 217.05 42.45 215.22 44.12 215.22 24.64Z" stroke="#774DCB" stroke-width="2" stroke-linejoin="round" fill="#9966FF"/><path d="M115.62 44.77 132 44.77C133.479 44.7523 134.94 44.4431 136.3 43.86L136.3 43.86C137.3 43.37 136.93 42.97 135.57 42.97L119.57 42.97C118.055 43.0005 116.558 43.3019 115.15 43.86L115.15 43.86C114 44.36 114.23 44.77 115.62 44.77Z" fill="#AA6C11"/><path d="M119.44 44.25 135.79 44.25C137.269 44.2323 138.73 43.9231 140.09 43.34L140.09 43.34C141.09 42.85 140.72 42.45 139.35 42.45L123.35 42.45C121.832 42.4806 120.332 42.782 118.92 43.34L118.92 43.34C117.81 43.84 118.05 44.25 119.44 44.25Z" stroke="#CF8B17" stroke-width="0.5" stroke-linejoin="round" fill="#FFAB19"/><path d="M131.69 43.7 134.16 43.7C134.744 43.6906 135.32 43.5719 135.86 43.35L135.86 43.35C136.25 43.15 136.12 43 135.58 43L133.13 43C132.546 43.0045 131.968 43.1234 131.43 43.35L131.43 43.35C131 43.54 131.14 43.7 131.69 43.7Z" fill="#FFFFFF" opacity="0.5"/><path d="M315.12 85.67 315.06 82.01 315.06 65.85 315.12 69.07 315.12 85.67Z" stroke="#3373CC" stroke-width="2" stroke-linejoin="round" fill="#4C97FF"/><path d="M434.28 50.9 429.54 47.33 429.54 42.38 434.28 45.74 434.28 50.9Z" stroke="#3373CC" stroke-width="2" stroke-linejoin="round" fill="#4C97FF"/><rect x="396.27" y="84.81" width="100.24" height="22.97" stroke="#CF8B17" stroke-width="2" stroke-linejoin="round" fill="#FFAB19"/><path d="M496.51 84.81 472.05 68.14 444.7 68.14 449.67 72.25 425.75 72.25 421.67 68.14 385.39 68.14 396.27 84.81 433.5 84.81 437.12 88.6 465.96 88.6 461.48 84.81 496.51 84.81Z" stroke="#CF8B17" stroke-width="2" stroke-linejoin="round" fill="#FFAB19"/><rect x="437.31" y="88.6" width="28.65" height="8.46" stroke="#CF8B17" stroke-width="2" stroke-linejoin="round" fill="#FFAB19"/><path d="M437.31 97.07 433.5 92.82 433.5 84.81 437.31 88.8 437.31 97.07Z" stroke="#CF8B17" stroke-width="2" stroke-linejoin="round" fill="#FFAB19"/><path d="M393.36 102.5 396.27 107.78 396.27 84.57 393.36 80.13 393.36 102.5Z" stroke="#CF8B17" stroke-width="2" stroke-linejoin="round" fill="#FFAB19"/><rect x="443.38" y="50.64" width="27.21" height="16.04" stroke="#3373CC" stroke-width="2" stroke-linejoin="round" fill="#4C97FF"/><path d="M443.38 50.64 449.67 55.03 449.67 72.25 443.38 67.05 443.38 50.64Z" stroke="#3373CC" stroke-width="2" stroke-linejoin="round" fill="#4C97FF"/><rect x="427.08" y="55.38" width="22.59" height="16.87" stroke="#3373CC" stroke-width="2" stroke-linejoin="round" fill="#4C97FF"/><path d="M422.03 51.66 427.08 55.94 427.08 72.25 422.03 67.22 422.03 51.66Z" stroke="#3373CC" stroke-width="2" stroke-linejoin="round" fill="#4C97FF"/><rect x="404.96" y="50.64" width="17.07" height="16.3" stroke="#3373CC" stroke-width="2" stroke-linejoin="round" fill="#4C97FF"/><path d="M470.59 50.7 456.12 42.38 429.54 42.38 435.32 46.41 417.54 46.41 413.29 42.87 412.87 42.87 389.63 42.87 395.77 49.63 420.94 49.63 427.4 55.03 449.67 55.03 443.46 50.7 470.59 50.7Z" stroke="#3373CC" stroke-width="2" stroke-linejoin="round" fill="#4C97FF"/><path d="M363.8 68.14 361.7 63.47 361.7 56.83 363.8 61.19 363.8 68.14Z" stroke="#CF8B17" stroke-width="2" stroke-linejoin="round" fill="#FFAB19"/><rect x="362.75" y="44.27" width="21.69" height="12.56" stroke="#CF8B17" stroke-width="2" stroke-linejoin="round" fill="#FFAB19"/><path d="M362.75 44.27 363.95 46.39 363.95 61.51 362.75 59.01 362.75 44.27Z" stroke="#CF8B17" stroke-width="2" stroke-linejoin="round" fill="#FFAB19"/><rect x="340.74" y="46.54" width="23.21" height="14.46" stroke="#CF8B17" stroke-width="2" stroke-linejoin="round" fill="#FFAB19"/><path d="M339.77 57.11 340.74 61 340.74 46.54 339.77 43.21 339.77 57.11Z" stroke="#CF8B17" stroke-width="2" stroke-linejoin="round" fill="#FFAB19"/><rect x="337.38" y="53.42" width="4.73" height="43.81" stroke="#CF8B17" stroke-width="2" stroke-linejoin="round" fill="#FFAB19"/><path d="M345.04 106.79 343.12 97.23 343.12 52.97 345.04 59.41 345.04 106.79Z" stroke="#CF8B17" stroke-width="2" stroke-linejoin="round" fill="#FFAB19"/><rect x="367.4" y="52.97" width="25.96" height="44.26" stroke="#CF8B17" stroke-width="2" stroke-linejoin="round" fill="#FFAB19"/><rect x="345.04" y="57.31" width="25.03" height="49.48" stroke="#CF8B17" stroke-width="2" stroke-linejoin="round" fill="#FFAB19"/><path d="M384.43 44.27 362.75 44.27 363.95 46.54 340.74 46.54 339.77 43.21 337.02 43.21 337.02 52.97 343.12 52.97 344.41 57.31 370.07 57.31 367.61 52.97 393.36 52.97 384.43 44.27Z" stroke="#CF8B17" stroke-width="2" stroke-linejoin="round" fill="#FFAB19"/><rect x="366.45" y="47.08" width="26.91" height="5.03" stroke="#BD42BD" stroke-width="2" stroke-linejoin="round" fill="#CF63CF"/><rect x="345.04" y="53.32" width="25.03" height="4.11" stroke="#BD42BD" stroke-width="2" stroke-linejoin="round" fill="#CF63CF"/><path d="M343.12 47.87 345.04 53.42 345.04 57.31 343.12 52.97 343.12 47.87Z" stroke="#BD42BD" stroke-width="2" stroke-linejoin="round" fill="#CF63CF"/><rect x="336.97" y="46.82" width="5.55" height="5.55" stroke="#BD42BD" stroke-width="2" stroke-linejoin="round" fill="#CF63CF"/><path d="M384.4 36.7 360.55 36.7 361.74 38.72 340.71 38.72 339.71 35.6 334.58 35.68 337.52 47.39 342.07 47.39 344.04 52.94 370.03 52.94 367.36 46.6 393.32 46.6 384.4 36.7Z" stroke="#BD42BD" stroke-width="2" stroke-linejoin="round" fill="#CF63CF"/><path d="M393.36 48.81 396.27 52.07 396.27 84.57 393.36 80.13 393.36 48.81Z" stroke="#CF8B17" stroke-width="2" stroke-linejoin="round" fill="#FFAB19"/><path d="M402.45 48.81 393.36 48.81 396.27 52.09 405.71 52.09 402.45 48.81Z" stroke="#CF8B17" stroke-width="2" stroke-linejoin="round" fill="#FFAB19"/><rect x="396.27" y="52.09" width="9.44" height="32.72" stroke="#CF8B17" stroke-width="2" stroke-linejoin="round" fill="#FFAB19"/><path d="M395 50.45C395.8 51.35 398.53 52.09 401.08 52.09 403.63 52.09 404.96 51.35 404.08 50.45 403.2 49.55 400.51 48.87 398.08 48.87 395.65 48.87 394.21 49.57 395 50.45Z" fill="#54360A"/><path d="M394.48 48.81C395.37 49.81 398.43 50.62 401.3 50.62 404.17 50.62 405.65 49.8 404.64 48.81 403.63 47.82 400.64 47.08 397.89 47.08 395.14 47.08 393.6 47.85 394.48 48.81Z" stroke="#FFFFFF" stroke-width="0.5" stroke-miterlimit="8" fill="#7ED321"/><path d="M395.86 48.37C396.565 48.8295 397.4 49.0503 398.24 49 399.24 49 399.77 48.72 399.44 48.37 398.733 47.9241 397.904 47.7107 397.07 47.76 396.09 47.76 395.55 48 395.86 48.37Z" fill="#FFFFFF" opacity="0.4"/><path d="M336.97 52.37 334.58 41.76 334.58 35.68 336.56 44.37 336.97 52.37Z" stroke="#BD42BD" stroke-width="2" stroke-linejoin="round" fill="#CF63CF"/><rect x="316.66" y="65.85" width="18.96" height="14.03" stroke="#3373CC" stroke-width="2" stroke-linejoin="round" fill="#4C97FF"/><rect x="254.7" y="65.85" width="15.86" height="14.03" stroke="#3373CC" stroke-width="2" stroke-linejoin="round" fill="#4C97FF"/><rect x="271.04" y="69.07" width="45.69" height="16.6" stroke="#3373CC" stroke-width="2" stroke-linejoin="round" fill="#4C97FF"/><path d="M335.63 65.85 334 55.77 315.91 55.77 315.91 58.94 274.65 58.94 275.89 55.77 268.84 55.77 264.04 65.85 272.17 65.85 271.04 69.07 316.73 69.07 316.66 65.85 335.63 65.85Z" stroke="#3373CC" stroke-width="2" stroke-linejoin="round" fill="#4C97FF"/><rect x="250.88" y="40.51" width="15.54" height="64.27" stroke="#CF8B17" stroke-width="2" stroke-linejoin="round" fill="#FFAB19"/><path d="M266.42 40.26 266.42 73.4 266.42 104.78 268.04 99.79 268.04 69.48 268.04 37.47 266.42 40.26Z" stroke="#CF8B17" stroke-width="2" stroke-linejoin="round" fill="#FFAB19"/><path d="M283.28 67.11 305 67.11C306.57 67.11 307.88 66.53 307.92 65.83L307.92 65.83C307.92 65.14 306.73 64.59 305.2 64.59L284 64.59C282.46 64.59 281 65.14 280.84 65.83L280.84 65.83C280.6 66.53 281.71 67.11 283.28 67.11Z" fill="#213E84"/><path d="M285.27 66.58 307 66.58C308.57 66.58 309.88 66 309.92 65.3L309.92 65.3C309.92 64.62 308.73 64.06 307.2 64.06L286 64.06C284.47 64.06 283.05 64.62 282.85 65.3L282.85 65.3C282.59 66 283.7 66.58 285.27 66.58Z" stroke="#FFFFFF" stroke-width="0.25" stroke-miterlimit="8" fill="#3869F8"/><path d="M303.73 66.07 305.73 66.07C306.66 66.07 307.44 65.73 307.47 65.31L307.47 65.31C307.47 64.9 306.78 64.57 305.87 64.57L303.87 64.57C302.97 64.57 302.18 64.9 302.13 65.31L302.13 65.31C302.1 65.73 302.81 66.07 303.73 66.07Z" fill="#FFFFFF" opacity="0.5"/><path d="M444.87 48.63 456.35 48.63C458.51 48.63 459.26 47.97 458.04 47.16L458.04 47.16C456.184 46.2086 454.125 45.7214 452.04 45.74L441 45.74C438.9 45.74 438 46.37 439.06 47.16L439.06 47.16C440.835 48.1496 442.838 48.6564 444.87 48.63Z" fill="#3E6013"/><path d="M445.73 47.78 457.21 47.78C459.36 47.78 460.12 47.11 458.9 46.31L458.9 46.31C457.044 45.3589 454.986 44.8684 452.9 44.88L441.8 44.88C439.71 44.88 438.8 45.52 439.87 46.31L439.87 46.31C441.661 47.3037 443.682 47.8105 445.73 47.78Z" stroke="#FFFFFF" stroke-width="0.5" stroke-miterlimit="8" fill="#7ED321"/><path d="M451.37 45.7 453.65 45.7C454.562 45.692 455.462 45.9083 456.27 46.33L456.27 46.33C456.78 46.67 456.44 46.96 455.49 46.96L453.18 46.96C452.268 46.9672 451.369 46.7509 450.56 46.33L450.56 46.33C450.07 46 450.44 45.7 451.37 45.7Z" fill="#FFFFFF" opacity="0.4"/><rect x="115.62" y="90.05" width="41.14" height="17.73" stroke="#BD42BD" stroke-width="2" stroke-linejoin="round" fill="#CF63CF"/><path d="M156.76 107.78 179.44 85.8 179.44 70.59 156.76 90.05 156.76 107.78Z" stroke="#BD42BD" stroke-width="2" stroke-linejoin="round" fill="#CF63CF"/><path d="M179.94 70.09 144.67 70.09 115.62 90.05 128.02 90.05 122.77 93.86 140.43 93.86 145.2 90.05 156.76 90.05 179.94 70.09Z" stroke="#BD42BD" stroke-width="2" stroke-linejoin="round" fill="#CF63CF"/><path d="M140.64 112.43 145.2 108.3 145.2 90.05 140.64 93.69 140.64 112.43Z" stroke="#BD42BD" stroke-width="2" stroke-linejoin="round" fill="#CF63CF"/><rect x="122.66" y="93.86" width="17.76" height="18.57" stroke="#BD42BD" stroke-width="2" stroke-linejoin="round" fill="#CF63CF"/><rect x="180.32" y="58.37" width="20.23" height="34.17" stroke="#3373CC" stroke-width="2" stroke-linejoin="round" fill="#4C97FF"/><path d="M131.2 84 145 84C146.06 84 146.35 84.46 145.63 85L145.63 85C144.653 85.6371 143.516 85.9838 142.35 86L128.35 86C127.27 86 127.04 85.54 127.84 85L127.84 85C128.857 84.3871 130.013 84.0429 131.2 84Z" fill="#54360A"/><path d="M133.48 83.41 147.24 83.41C148.31 83.41 148.6 83.87 147.88 84.41L147.88 84.41C146.899 85.0459 145.759 85.3925 144.59 85.41L130.59 85.41C129.51 85.41 129.29 84.95 130.09 84.41L130.09 84.41C131.114 83.788 132.282 83.4434 133.48 83.41Z" stroke="#FFFFFF" stroke-width="0.5" stroke-miterlimit="8" fill="#7ED321"/><path d="M142.87 84.17 145.78 84.17C146.12 84.17 146.21 84.32 145.98 84.49L145.98 84.49C145.683 84.6901 145.337 84.8043 144.98 84.82L142 84.82C141.66 84.82 141.58 84.67 141.81 84.49L141.81 84.49C142.128 84.29 142.494 84.1794 142.87 84.17Z" fill="#FFFFFF" opacity="0.5"/></g></g></svg>