<svg viewBox="0 0 61.4 88.67" xmlns="http://www.w3.org/2000/svg" xmlns:xlink="http://www.w3.org/1999/xlink" overflow="hidden"><defs></defs><g id="Layer_2"><g id="Layer_1-2"><path d="M33.85 85.85 39.53 76C40.5352 74.259 39.9387 72.0328 38.1977 71.0277 37.645 70.7086 37.0182 70.5404 36.38 70.54L25 70.54C22.9897 70.5523 21.37 72.1919 21.3824 74.2022 21.3862 74.8336 21.5543 75.4532 21.87 76L27.55 85.84C28.5546 87.5813 30.7806 88.1785 32.5219 87.1739 33.0726 86.8561 33.5305 86.3997 33.85 85.85Z" stroke="#CF8B17" stroke-width="2" stroke-linejoin="round" fill="#FFAB19"/><path d="M57 52.22 39 52.22C38.6465 52.22 38.36 52.5065 38.36 52.86L38.36 56.86C38.36 57.219 38.069 57.51 37.71 57.51L23.71 57.51C23.3549 57.5045 23.07 57.2151 23.07 56.86L23.07 52.86C23.0645 52.5049 22.7751 52.22 22.42 52.22L4.42 52.22C2.52014 52.2227 0.982183 53.765 0.984871 55.6649 0.986165 56.5792 1.35144 57.4555 2 58.1L9.3 65.39C9.95066 66.0305 10.827 66.3897 11.74 66.39L50.05 66.39C50.9944 66.3895 51.8976 66.0029 52.55 65.32L59.45 58C60.7427 56.6078 60.6621 54.4312 59.2699 53.1384 58.6515 52.5642 57.8437 52.2374 57 52.22Z" stroke="#CF8B17" stroke-width="2" stroke-linejoin="round" fill="#FFAB19"/><rect x="25.6" y="1" width="10.2" height="52.56" stroke="#CF8B17" stroke-width="2" stroke-linejoin="round" fill="#FFAB19"/></g></g></svg>