<svg viewBox="0 0 162.77 75.92" xmlns="http://www.w3.org/2000/svg" xmlns:xlink="http://www.w3.org/1999/xlink" overflow="hidden"><defs></defs><g id="Layer_2"><g id="Layer_1-2"><path d="M1 6.28C0.994472 3.36946 3.34945 1.00553 6.25998 1 6.26665 0.999988 6.27333 0.999988 6.28 1L16.84 1C19.48 1 20.84 2.32 22.12 3.64L27.4 8.92C28.72 10.24 30.04 11.56 32.68 11.56L48.52 11.56C51.16 11.56 52.52 10.24 53.8 8.92L59.08 3.64C60.4 2.32 61.72 1 64.36 1L156.49 1C159.406 1 161.77 3.36394 161.77 6.28L161.77 59.08C161.764 61.9938 159.404 64.3545 156.49 64.36L64.36 64.36C61.72 64.36 60.36 65.68 59.08 67L53.8 72.28C52.48 73.6 51.16 74.92 48.52 74.92L32.68 74.92C30.04 74.92 28.68 73.6 27.4 72.28L22.12 67C20.8 65.68 19.48 64.36 16.84 64.36L6.28 64.36C3.36394 64.36 1 61.9961 1 59.08Z" stroke="#3373CC" stroke-width="2" stroke-miterlimit="8" fill="#4C97FF"/></g></g></svg>