<svg width="137.773" height="126.489" viewBox="0 0 137.773 126.489" xmlns="http://www.w3.org/2000/svg" xmlns:xlink="http://www.w3.org/1999/xlink" overflow="hidden"><g transform="translate(-187.223 -111.001)"><g stroke-miterlimit="10" fill-rule="evenodd"><path d="M204.166 214.629C195.805 210.297 190.465 205.705 187.298 193.009 186.832 191.141 188.648 191.266 189.404 191.561 195.925 194.108 200.096 185.537 203.911 181.873 207.914 178.03 212.403 177.838 217.637 178.462 220.92 178.854 223.862 178.92 227.017 177.787 229.749 176.807 232.289 175.358 235.029 174.398 239.157 172.948 243.697 172.709 247.352 175.408 247.727 175.684 247.855 176.036 247.825 176.378 250.522 180.245 250.144 185.523 247.405 189.315 244.079 193.917 238.713 195.499 233.423 196.489 230.171 197.098 226.643 197.695 224.203 200.153 222.101 202.269 221.033 205.208 219.283 207.594 216.08 211.966 210.971 214.508 205.631 214.793 205.43 214.805 205.252 214.774 205.096 214.715 204.822 214.81 204.504 214.804 204.166 214.628" fill="#C93A27"/><path d="M266.181 212.171C266.943 212.04 267.757 212.352 267.973 213.175 270.06 221.142 271.779 229.791 266.399 236.848 265.682 237.79 264.277 237.177 263.959 236.237 261.665 229.47 259.63 222.617 257.861 215.694 257.766 215.353 257.804 214.988 257.967 214.674 257.939 214.09 258.242 213.537 258.999 213.407L266.181 212.17" fill="#FFE2DC"/><path d="M269.309 223.566C270.341 223.271 271.036 224.224 271.027 225.111 271.033 225.136 271.043 225.155 271.048 225.18 271.869 229.05 270.995 234.053 267.688 236.605 262.994 240.227 260.76 231.764 260.051 228.647 259.993 228.394 260.001 228.163 260.053 227.954 260.008 227.759 259.999 227.559 260.027 227.364 259.983 226.764 260.245 226.164 260.94 225.964L269.31 223.566" fill="#401F0F"/><path d="M244.602 211.758C245.315 211.949 245.923 212.741 245.685 213.512 243.504 220.586 241.322 227.659 239.142 234.733 238.794 235.858 237.146 236.366 236.498 235.173 232.738 228.258 231.769 220.324 233.87 212.717 233.879 212.684 233.894 212.659 233.904 212.627 233.538 211.77 233.919 210.576 235.111 210.566 238.314 210.529 241.507 210.931 244.602 211.758" fill="#FFE2DC"/><path d="M243.355 226.141C242.729 228.815 242.388 231.871 241.3 234.399 240.546 236.147 239 237.594 236.978 237.299 234.85 236.988 233.656 235.126 232.929 233.271 231.962 230.81 231.186 228.242 231.032 225.59 231.004 225.266 231.093 224.943 231.283 224.679 231.458 224.21 231.844 223.832 232.383 223.766 232.559 223.677 232.764 223.619 233.009 223.619 236.113 223.61 239.211 223.867 242.271 224.387 243.046 224.518 243.527 225.407 243.355 226.14" fill="#401F0F"/><path d="M228.296 219.085C227.472 219.004 227.05 218.134 227.115 217.397 227.403 214.139 227.938 206.549 229.601 203.739 230.088 202.914 231.026 202.838 231.691 203.177 231.869 203.124 232.064 203.099 232.279 203.119 238.978 203.748 245.669 203.724 252.364 203.078 252.768 202.919 253.243 202.989 253.634 203.229 253.643 203.228 253.649 203.224 253.659 203.224L272.903 201.327C273.986 201.22 274.516 202.018 274.416 202.86 274.42 202.874 274.419 202.812 274.422 202.827 275.183 206.256 276.364 214.247 277.124 217.677 277.295 218.449 276.525 219.184 275.821 219.254 269.162 219.914 262.501 220.567 255.842 221.227 255.222 221.288 254.557 220.894 254.345 220.293 253.709 218.487 253.191 216.641 252.795 214.768L250.738 220.249C250.426 221.082 249.672 221.239 249.032 220.995 248.842 221.059 248.628 221.087 248.392 221.063L228.296 219.085" fill="#C93A27"/><path d="M240.414 181.066C240.402 180.85 240.447 180.636 240.542 180.442L240.542 180.432C240.528 180.37 240.514 180.307 240.512 180.246 240.497 179.625 240.969 178.879 241.667 178.904 241.708 178.906 241.743 178.911 241.783 178.914 241.95 178.823 242.136 178.773 242.326 178.768L257.291 178.219C258.028 178.193 258.461 178.712 258.561 179.283 258.776 179.492 258.902 179.776 258.911 180.076 259.23 185.324 255.541 190.064 250.178 190.35 244.83 190.635 240.62 186.322 240.414 181.066M212.37 198.143C209.706 196.745 208.859 193.6 209.879 190.838 210.963 187.906 213.813 185.747 216.332 184.11 222.269 180.256 229.425 179.061 236.325 180.279 236.913 180.383 237.233 180.729 237.341 181.149 237.832 181.579 238.1 182.209 238.068 182.861 238.43 184.036 242.356 188.662 231.983 188.969 224.847 189.181 219.343 193.068 214.206 197.979 213.693 198.47 212.964 198.454 212.37 198.143M290.765 173.167C292.944 175.067 293.041 178.192 291.48 180.542 289.823 183.037 286.687 184.417 283.975 185.381 277.585 187.653 270.641 187.171 264.467 184.493 263.941 184.265 263.72 183.87 263.711 183.453 263.348 182.943 263.237 182.295 263.41 181.693 263.331 180.515 261.773 178.013 262.717 177.365 262.813 177.262 268.559 177.133 270.435 177.35 277.24 178.136 283.138 176.347 289.015 172.91 289.602 172.567 290.279 172.744 290.765 173.167" fill="#FFE2DC"/><path d="M228.526 189.99 225.326 181.184C225.076 180.497 225.45 179.506 226.208 179.319 229.565 178.489 232.948 177.996 236.405 177.889 236.828 177.876 237.165 178.017 237.412 178.241 237.664 178.004 238.002 177.869 238.378 177.936L242.095 178.6C242.313 178.64 242.489 178.725 242.635 178.837 243.043 178.947 243.384 179.265 243.439 179.824 243.802 183.516 247.039 178.639 250.85 178.455 254.792 178.265 257.043 182.645 256.758 178.767 256.722 178.27 256.974 177.637 257.498 177.475L260.327 176.598C260.738 176.282 261.291 176.197 261.681 176.465 261.99 176.178 262.407 176.037 262.827 176.077L270.14 176.647C271.01 176.448 272.186 177.112 272.091 178.323L271.399 187.178C271.359 187.679 272.536 196.062 273.906 199.888 274.174 200.638 273.753 201.472 272.936 201.585 258.509 203.561 243.913 203.995 229.394 202.878 228.673 202.823 228.361 202.278 228.381 201.718 228.228 201.498 228.16 201.209 228.246 200.853 229.044 197.546 228.686 190.433 228.526 189.991" fill="#C3CDDD"/><path d="M222.524 171.727C217.723 163.907 219.496 154.142 219.403 145.447 219.395 144.698 219.857 144.218 220.411 144.028 220.463 143.376 220.874 142.728 221.677 142.583 238.722 139.511 255.941 137.551 273.174 138.067 273.433 138.074 273.767 140.544 273.961 140.648 274.717 140.75 275.401 141.358 275.19 142.325 273.472 150.201 276.709 158.211 274.985 166.079 273.445 173.11 267.693 177.945 261.075 180.047 254.044 182.279 245.837 182.383 238.587 181.187 232.288 180.15 225.994 177.38 222.524 171.727" fill="#FFE2DC"/><path d="M246.57 169.132C248.946 172.957 254.184 173.122 256.494 169.079 257.419 167.459 260.03 168.734 259.096 170.369 255.772 176.191 247.782 176.586 244.176 170.782 243.186 169.189 245.578 167.536 246.569 169.132" fill="#050000"/><path d="M230.937 158.319C231.907 155.989 234.247 154.688 236.619 154.703 236.89 154.526 237.238 154.453 237.657 154.562 240.872 155.398 243.197 158.689 242.384 162.063 241.586 165.383 237.727 167.467 234.539 166.357 231.426 165.273 229.653 161.398 230.937 158.319" fill="#FAFCF8"/><path d="M235.203 156.877C235.361 156.721 235.564 156.591 235.828 156.508 238.557 155.652 241.65 158.085 240.798 161.046 239.989 163.854 236.399 164.906 234.405 162.666 232.868 160.938 233.195 157.84 235.203 156.876" fill="#401F0F"/><path d="M238.093 158.731C240.634 158.548 240.842 161.461 238.3 161.644 236.775 161.754 236.568 158.841 238.093 158.731M260.44 154.8C262.554 151.486 266.962 151.196 269.94 153.439 270.344 153.743 270.494 154.125 270.477 154.5 271.82 156.108 272.387 158.314 271.597 160.486 270.299 164.051 266.219 165.766 262.837 164.019 259.451 162.271 258.396 158.004 260.44 154.799" fill="#FAFCF8"/><path d="M264.379 154.622C264.799 154.339 265.274 154.15 265.773 154.066 266.025 153.936 266.33 153.883 266.685 153.952 266.995 154.012 267.297 154.104 267.585 154.219 267.934 154.339 268.258 154.515 268.551 154.733 270.107 155.791 270.989 157.68 270.273 159.654 269.364 162.162 266.31 162.674 264.306 161.158 262.223 159.583 262.161 156.113 264.379 154.622" fill="#401F0F"/><path d="M267.56 156.408C270.102 156.225 270.31 159.138 267.768 159.321 266.243 159.431 266.036 156.518 267.561 156.408" fill="#FAFCF8"/><path d="M214.793 153.222C214.237 152.966 213.833 152.41 213.994 151.627 217.064 136.696 218.009 125.268 245.184 122.7 269.464 120.405 278.312 134.238 279.3 148.698 279.417 150.403 276.021 150.76 275.467 150.723 270.912 150.422 264.392 148.38 257.584 141.532 247.962 151.977 226.843 156.744 215.487 153.862 215.123 153.77 214.921 153.48 214.793 153.22"/><path d="M249.763 163.214C250.525 163.358 252.887 163.943 253.161 162.703 253.293 162.106 252.476 161.599 252.095 161.268 250.856 160.188 249.875 159.122 250.082 157.355 250.302 155.491 253.146 156.068 252.927 157.929 252.865 158.452 254.47 159.461 254.801 159.803 255.621 160.654 256.216 161.713 256.066 162.941 255.647 166.368 251.806 166.572 249.195 166.079 247.362 165.733 247.925 162.867 249.763 163.214" fill="#F4D7D0"/><path d="M227.886 206.914C226.575 206.927 227.201 200.958 227.634 199.789 227.797 199.349 228.392 198.97 228.86 198.975 243.541 199.155 258.219 198.406 272.805 196.732 273.426 196.661 273.863 196.928 274.106 197.325 274.225 197.413 274.328 197.52 274.41 197.643 275.127 198.783 276.118 201.534 275.253 203.489 274.563 205.05 265.71 205.198 261.848 205.474 251.207 206.237 238.816 206.806 227.886 206.914" fill="#401F0F"/><path d="M253.355 204.567 253.448 204.568C254.697 204.689 256.2 204.29 257.45 204.163L260.48 203.856 260.363 198.173C257.957 198.257 255.573 198.504 253.203 198.917L253.237 200.178 255.952 199.959C257.813 199.809 258.022 202.722 256.159 202.872L253.365 203.097C253.383 203.384 253.374 203.672 253.338 203.957L253.355 204.567M251.507 207.161C250.484 206.473 250.485 205.274 250.445 204.166 250.368 202.048 250.332 199.928 250.275 197.809 250.252 196.945 250.817 196.409 251.618 196.249 254.755 195.616 257.944 195.272 261.144 195.222 261.281 195.221 261.417 195.238 261.549 195.273 262.062 195.22 262.598 195.402 262.878 195.878L263.044 196.158C263.258 196.524 263.325 196.958 263.232 197.372 263.235 197.409 263.246 197.439 263.247 197.479L263.403 205.07C263.419 205.877 262.874 206.548 262.06 206.63L255.657 207.279C254.409 207.405 252.652 207.933 251.507 207.161" fill="#DD8D00"/><path d="M307.335 125.27C307.425 124.964 307.579 124.746 307.769 124.597 307.725 124.186 307.891 123.768 308.375 123.47L321.445 115.433C322.289 114.913 323.672 115.151 323.779 116.358L324.962 129.799C324.975 129.949 324.963 130.087 324.939 130.218 325.055 130.624 324.991 131.059 324.764 131.414L304.371 164.711C304.257 164.905 304.095 165.067 303.902 165.183 303.52 165.888 302.607 166.344 301.751 165.753L296.485 162.112C296.288 161.979 296.128 161.799 296.021 161.587 295.405 161.29 294.979 160.624 295.312 159.805 299.912 148.508 303.925 136.981 307.335 125.27" fill="#C3CDDD"/><path d="M316.441 125.145C317.277 123.486 319.988 124.541 319.144 126.216L299.826 164.544C298.989 166.203 296.279 165.148 297.122 163.473L316.441 125.145" fill="#7B97C2"/><path d="M288.229 167.213C287.515 166.735 287.571 165.822 287.935 165.168L290.762 160.077C291.169 159.341 292.195 159.428 292.792 159.787L304.202 166.659C304.696 166.958 304.87 167.386 304.829 167.809 305.067 168.149 305.159 168.595 304.965 169.101 303.998 171.612 302.337 174.182 299.269 173.527 298.35 173.331 297.446 172.882 296.569 172.375L291.958 179.296C291.503 179.98 290.558 179.998 289.928 179.585 288.86 178.884 287.792 178.182 286.723 177.482 286.181 177.125 286.036 176.355 286.24 175.779 287.166 173.157 288.558 170.723 290.349 168.597 289.639 168.142 288.932 167.682 288.228 167.213" fill="#DD8D00"/><path d="M197.984 181.105C204.088 177.538 211.894 179.299 215.803 184.767 220.039 188.617 222.608 194.114 222.018 200.027 221.255 207.673 215.391 213.962 207.572 214.563 199.348 215.195 192.858 208.516 190.698 201.105 188.515 193.613 191.04 185.163 197.984 181.105" fill="#C3CDDD"/><path d="M208.431 206.079C208.821 202.169 210.376 198.466 212.893 195.449 209.149 194.129 205.705 192.078 202.76 189.415 202.474 193.479 201.399 197.449 199.595 201.102 202.854 202.131 205.863 203.826 208.431 206.081M196.436 201.267C198.872 196.904 200.091 192.246 200.114 187.253 200.116 186.906 200.228 186.63 200.402 186.421 200.511 185.405 201.807 184.577 202.695 185.541 206.255 189.398 210.64 192.088 215.712 193.487 216.692 193.757 217.052 195.04 216.313 195.757 212.58 199.388 210.767 204.17 211.098 209.349 211.188 210.774 209.39 211.03 208.663 210.134 208.65 210.12 208.636 210.112 208.623 210.097 205.536 206.662 201.747 204.376 197.252 203.263 196.379 203.047 196.018 202.015 196.436 201.267" fill="#7B97C2"/><path d="M201.27 212.322C209.632 215.326 218.245 209.608 220.166 201.343 222.146 192.826 217.013 184.903 209.496 181.218 202.511 179.215 194.416 182.764 191.775 189.728 188.701 197.834 192.742 209.259 201.27 212.322M191.447 184.739C195.602 179.229 202.818 176.963 209.375 178.434 209.628 178.394 209.9 178.422 210.18 178.547 210.327 178.613 210.468 178.689 210.612 178.757 211.34 178.977 212.057 179.242 212.756 179.557 213.16 179.74 213.372 180.026 213.44 180.339 219.059 184.009 223.042 190.019 223.309 196.869 223.612 204.663 219.079 212.209 211.575 214.836 194.627 220.769 181.389 198.071 191.447 184.739" fill="#7B97C2"/><path d="M241.304 111.186C256.137 109.593 273.302 118.394 275.03 133.056 275.53 137.293 271.893 134.234 271.233 134.176 253.299 132.575 235.224 134.399 217.971 139.55 217.057 139.824 216.145 139.077 216.135 138.158 215.974 123.211 226.295 112.798 241.305 111.186" fill="#C3CDDD"/><path d="M249.024 120.143C249.307 119.942 249.678 119.853 250.116 119.969 258.536 122.21 266.714 125.278 274.53 129.129 275.048 129.383 275.242 129.809 275.219 130.236 275.225 130.277 275.237 130.316 275.241 130.36L275.975 139.803C276.031 140.536 275.303 141.16 274.61 141.161 255.421 141.19 236.274 142.959 217.405 146.447 216.521 146.611 215.708 146.075 215.678 145.137L215.406 136.892C215.373 135.89 237.442 123.207 249.024 120.143" fill="#7B97C2"/><path d="M272.827 130.87C273.641 130.87 274.098 131.497 274.192 132.228L274.744 136.575C274.836 137.304 274.05 137.933 273.379 137.933 272.565 137.933 272.108 137.306 272.015 136.575L271.462 132.228C271.37 131.499 272.156 130.87 272.827 130.87M268.647 130.335 269.223 136.582C269.383 138.322 266.653 138.312 266.494 136.582L265.918 130.336C265.758 128.596 268.488 128.606 268.647 130.336M261.34 127.341 262.48 136.029C262.708 137.757 259.976 137.741 259.751 136.029L258.611 127.341C258.384 125.613 261.115 125.629 261.34 127.341M255.304 125.169C255.312 128.693 255.574 132.189 256.132 135.669 256.405 137.38 253.776 138.116 253.499 136.391 252.897 132.68 252.588 128.928 252.575 125.169 252.572 123.421 255.3 123.419 255.305 125.169M248.174 126.257 248.396 137.126C248.432 138.875 245.703 138.875 245.666 137.126L245.445 126.257C245.409 124.508 248.138 124.509 248.174 126.257M241.026 129.451 241.026 138.998C241.026 140.43 238.149 140.43 238.149 138.998L238.149 129.451C238.149 127.541 241.026 127.541 241.026 129.451M231.743 133.045C231.803 131.301 234.533 131.293 234.473 133.045L234.257 139.295C234.197 141.039 231.469 141.047 231.529 139.295ZM228.079 135.179 228.079 141.385C228.079 142.817 225.682 142.817 225.682 141.385L225.682 135.179C225.682 133.27 228.079 133.27 228.079 135.179M220.724 137.119C221.514 137.119 222.026 137.743 222.089 138.477L222.345 141.467C222.407 142.199 221.673 142.825 220.98 142.825 220.19 142.825 219.678 142.201 219.615 141.467L219.36 138.477C219.297 137.745 220.032 137.119 220.724 137.119" fill="#C3CDDD"/></g></g></svg>