<svg width="129.489" height="130.248" viewBox="0 0 129.489 130.248" xmlns="http://www.w3.org/2000/svg" xmlns:xlink="http://www.w3.org/1999/xlink" overflow="hidden"><g transform="translate(-187.582 -107.441)"><g stroke-miterlimit="10" fill-rule="evenodd"><path d="M207.71 219.756C198.789 216.743 192.814 213.014 187.758 200.946 187.014 199.17 188.827 199.018 189.619 199.195 196.451 200.723 199.274 191.619 202.489 187.418 205.862 183.013 210.27 182.142 215.538 181.964 218.843 181.854 221.761 181.473 224.707 179.874 227.259 178.491 229.55 176.673 232.113 175.309 235.973 173.249 240.424 172.324 244.446 174.438 244.859 174.654 245.039 174.982 245.061 175.325 248.313 178.738 248.74 184.012 246.608 188.176 244.019 193.229 238.955 195.607 233.877 197.388 230.755 198.483 227.358 199.608 225.319 202.408 223.563 204.819 222.953 207.886 221.585 210.509 219.082 215.317 214.418 218.604 209.183 219.696 208.986 219.739 208.806 219.735 208.643 219.7 208.386 219.836 208.071 219.878 207.71 219.755" fill="#C93A27"/><path d="M264.962 211.664C265.496 211.104 266.335 210.869 267 211.401 273.426 216.552 279.964 222.469 279.853 231.343 279.84 232.526 278.346 232.872 277.53 232.307 271.653 228.243 265.933 223.956 260.385 219.453 260.105 219.236 259.918 218.921 259.861 218.571 259.491 218.119 259.404 217.495 259.934 216.939L264.962 211.663" fill="#FFE2DC"/><path d="M274.269 218.945C274.921 218.093 276.047 218.444 276.569 219.161 276.589 219.178 276.608 219.187 276.627 219.204 279.594 221.821 281.876 226.358 280.743 230.379 279.135 236.086 272.295 230.624 269.867 228.545 269.67 228.377 269.538 228.186 269.455 227.988 269.303 227.858 269.176 227.703 269.083 227.529 268.689 227.074 268.542 226.436 268.981 225.861L274.269 218.945" fill="#401F0F"/><path d="M246.164 217.315C246.695 217.828 246.843 218.815 246.261 219.374 240.924 224.505 235.588 229.634 230.252 234.765 229.402 235.58 227.715 235.225 227.726 233.868 227.789 225.997 230.787 218.588 236.312 212.952 236.336 212.928 236.361 212.913 236.385 212.89 236.48 211.963 237.392 211.103 238.44 211.672 241.259 213.193 243.858 215.091 246.164 217.315" fill="#FFE2DC"/><path d="M236.251 232.394C233.995 233.961 231.696 236.002 229.195 237.151 227.465 237.945 225.348 237.984 224.043 236.411 222.671 234.756 223.031 232.573 223.733 230.709 224.662 228.233 225.806 225.806 227.467 223.733 227.663 223.474 227.946 223.294 228.263 223.225 228.707 222.994 229.247 222.971 229.692 223.283 229.882 223.335 230.073 223.429 230.255 223.593 232.566 225.664 234.696 227.93 236.62 230.365 237.108 230.981 236.87 231.964 236.251 232.393" fill="#401F0F"/><path d="M229.79 220.245C228.963 220.211 228.492 219.366 228.515 218.627 228.618 215.358 228.723 207.749 230.224 204.85 230.664 203.999 231.596 203.87 232.279 204.17 232.454 204.107 232.647 204.071 232.863 204.079 239.587 204.328 246.266 203.925 252.913 202.902 253.308 202.72 253.786 202.763 254.19 202.98 254.199 202.979 254.204 202.975 254.214 202.974L273.32 199.991C274.395 199.823 274.97 200.59 274.918 201.436 274.922 201.45 274.918 201.388 274.922 201.403 275.876 204.783 277.507 212.694 278.46 216.076 278.674 216.837 277.947 217.614 277.248 217.724 270.637 218.76 264.024 219.789 257.413 220.825 256.797 220.921 256.111 220.565 255.865 219.977 255.128 218.21 254.507 216.396 254.005 214.548L252.262 220.137C251.997 220.986 251.253 221.186 250.601 220.978 250.415 221.053 250.203 221.093 249.966 221.083L229.79 220.245" fill="#C93A27"/><path d="M237.774 181.729C237.718 181.521 237.716 181.301 237.769 181.092L237.767 181.083C237.741 181.025 237.714 180.966 237.699 180.907 237.556 180.302 237.863 179.475 238.551 179.354 238.591 179.348 238.627 179.345 238.666 179.34 238.811 179.217 238.982 179.129 239.167 179.085L253.693 175.444C254.409 175.265 254.94 175.683 255.156 176.221 255.41 176.381 255.592 176.633 255.663 176.924 257.064 181.992 254.438 187.394 249.251 188.786 244.078 190.174 239.065 186.828 237.774 181.729M213.881 204.252C210.985 203.436 209.504 200.536 209.929 197.622 210.382 194.529 212.722 191.826 214.847 189.702 219.855 184.7 226.608 182.047 233.61 181.807 234.207 181.787 234.592 182.059 234.785 182.448 235.354 182.766 235.747 183.328 235.851 183.972 236.449 185.046 241.249 188.757 231.165 191.209 224.228 192.897 219.65 197.841 215.643 203.71 215.243 204.297 214.527 204.433 213.881 204.251M285.391 163.559C287.917 164.965 288.66 168.002 287.62 170.625 286.517 173.409 283.735 175.41 281.282 176.915 275.502 180.463 268.609 181.432 262.014 180.093 261.452 179.979 261.154 179.638 261.059 179.232 260.598 178.809 260.355 178.198 260.4 177.573 260.078 176.437 258.035 174.313 258.824 173.483 258.896 173.362 264.491 172.044 266.371 171.867 273.191 171.225 278.59 168.252 283.626 163.67 284.129 163.213 284.828 163.246 285.391 163.559" fill="#FFE2DC"/><path d="M228.445 192.458 224.752 183.848C224.463 183.176 224.781 182.165 225.527 181.936 228.831 180.917 232.181 180.233 235.626 179.931 236.048 179.894 236.393 180.016 236.652 180.225 236.89 179.975 237.22 179.821 237.599 179.866L241.348 180.319C241.568 180.346 241.748 180.421 241.9 180.525 242.314 180.612 242.672 180.91 242.759 181.465 243.33 185.13 246.286 180.078 250.08 179.679 254.005 179.266 256.501 183.511 255.997 179.656 255.932 179.161 256.148 178.515 256.662 178.324L259.437 177.288C259.83 176.949 260.377 176.833 260.781 177.079 261.074 176.775 261.482 176.61 261.904 176.626L269.237 176.782C270.094 176.534 271.306 177.13 271.28 178.345L271.09 187.225C271.079 187.727 272.728 196.03 274.312 199.772 274.622 200.506 274.249 201.362 273.44 201.521 259.148 204.311 244.6 205.57 230.041 205.277 229.318 205.263 228.976 204.736 228.964 204.176 228.799 203.965 228.715 203.68 228.78 203.32 229.39 199.973 228.63 192.892 228.445 192.459" fill="#C3CDDD"/><path d="M221.659 173.86C216.151 166.521 217.008 156.633 216.106 147.985 216.028 147.24 216.444 146.719 216.978 146.478 216.969 145.824 217.318 145.141 218.104 144.922 234.789 140.277 251.751 136.723 268.957 135.634 269.216 135.617 269.778 138.045 269.981 138.13 270.743 138.162 271.481 138.703 271.36 139.686 270.383 147.687 274.351 155.361 273.367 163.356 272.487 170.499 267.21 175.849 260.817 178.557 254.024 181.434 245.862 182.301 238.532 181.785 232.164 181.338 225.64 179.166 221.659 173.86" fill="#FFE2DC"/><path d="M245.359 169.039C248.08 172.627 253.311 172.304 255.235 168.063 256.005 166.364 258.723 167.391 257.946 169.105 255.178 175.212 247.259 176.348 243.129 170.905 241.995 169.411 244.223 167.543 245.358 169.039" fill="#050000"/><path d="M228.788 159.728C229.537 157.318 231.745 155.805 234.108 155.599 234.362 155.397 234.702 155.292 235.129 155.362 238.408 155.895 241.029 158.955 240.533 162.391 240.048 165.77 236.399 168.204 233.122 167.396 229.921 166.606 227.796 162.913 228.788 159.728" fill="#FAFCF8"/><path d="M232.901 157.895C233.044 157.725 233.234 157.577 233.489 157.47 236.126 156.363 239.432 158.498 238.86 161.525 238.315 164.397 234.839 165.778 232.645 163.733 230.954 162.156 230.991 159.041 232.901 157.894" fill="#401F0F"/><path d="M235.951 159.472C238.464 159.054 238.942 161.935 236.428 162.353 234.92 162.605 234.443 159.724 235.951 159.472M257.835 153.479C259.632 149.983 263.994 149.284 267.167 151.24 267.598 151.505 267.783 151.871 267.801 152.246 269.287 153.722 270.057 155.866 269.473 158.102 268.512 161.773 264.609 163.86 261.08 162.435 257.546 161.01 256.098 156.859 257.835 153.478" fill="#FAFCF8"/><path d="M261.741 152.935C262.132 152.615 262.588 152.382 263.077 152.252 263.316 152.099 263.614 152.018 263.974 152.054 264.288 152.084 264.598 152.148 264.895 152.236 265.254 152.323 265.593 152.468 265.905 152.658 267.552 153.566 268.606 155.365 268.077 157.397 267.405 159.979 264.412 160.773 262.276 159.45 260.055 158.075 259.671 154.626 261.741 152.935" fill="#401F0F"/><path d="M265.074 154.418C267.588 153.999 268.066 156.88 265.552 157.299 264.044 157.55 263.567 154.669 265.075 154.417" fill="#FAFCF8"/><path d="M212.239 156.155C211.662 155.952 211.208 155.436 211.295 154.641 212.963 139.489 212.84 128.023 239.659 122.938 263.62 118.394 273.716 131.343 276.046 145.649 276.321 147.335 272.973 148.007 272.418 148.021 267.854 148.146 261.173 146.719 253.757 140.534 245.149 151.829 224.565 158.541 212.99 156.728 212.619 156.67 212.391 156.4 212.239 156.153"/><path d="M247.987 162.85C248.759 162.922 251.166 163.285 251.323 162.025 251.399 161.418 250.538 160.99 250.128 160.695 248.794 159.735 247.718 158.765 247.76 156.987 247.805 155.11 250.691 155.42 250.646 157.293 250.633 157.82 252.325 158.675 252.686 158.985 253.582 159.756 254.273 160.755 254.238 161.992 254.139 165.443 250.334 166.003 247.688 165.755 245.831 165.581 246.125 162.675 247.987 162.85" fill="#F4D7D0"/><path d="M228.692 208.117C227.383 208.204 227.671 202.209 228.037 201.018 228.175 200.569 228.747 200.157 229.215 200.135 243.882 199.484 258.494 197.906 272.962 195.409 273.578 195.303 274.03 195.545 274.295 195.927 274.419 196.008 274.527 196.11 274.616 196.228 275.397 197.325 276.542 200.016 275.789 202.016 275.188 203.614 266.358 204.263 262.518 204.757 251.937 206.121 239.598 207.39 228.692 208.117" fill="#401F0F"/><path d="M253.987 204.332 254.08 204.328C255.334 204.378 256.812 203.895 258.053 203.697L261.06 203.219 260.622 197.552C258.224 197.772 255.858 198.153 253.515 198.7L253.621 199.957 256.319 199.585C258.169 199.329 258.542 202.226 256.691 202.481L253.914 202.864C253.948 203.149 253.955 203.437 253.935 203.724L253.987 204.332M252.289 207.027C251.228 206.398 251.162 205.2 251.059 204.096 250.862 201.986 250.706 199.872 250.529 197.759 250.458 196.898 250.991 196.331 251.782 196.126 254.878 195.316 258.042 194.792 261.235 194.561 261.371 194.553 261.508 194.562 261.642 194.589 262.151 194.507 262.696 194.659 263.003 195.118L263.185 195.388C263.419 195.742 263.51 196.171 263.441 196.59 263.446 196.626 263.459 196.656 263.462 196.696L264.047 204.266C264.109 205.07 263.603 205.771 262.795 205.899L256.439 206.909C255.2 207.106 253.476 207.733 252.289 207.027" fill="#DD8D00"/><path d="M299.006 118.818C299.069 118.504 299.204 118.274 299.379 118.108 299.3 117.703 299.428 117.273 299.884 116.934L312.204 107.788C313 107.197 314.399 107.313 314.61 108.506L316.96 121.793C316.987 121.941 316.986 122.079 316.974 122.213 317.125 122.606 317.099 123.046 316.904 123.419L299.49 158.366C299.393 158.57 299.246 158.745 299.064 158.877 298.745 159.613 297.875 160.147 296.971 159.633L291.408 156.464C291.2 156.35 291.025 156.183 290.899 155.982 290.26 155.74 289.778 155.113 290.038 154.268 293.636 142.614 296.629 130.781 299.006 118.818" fill="#C3CDDD"/><path d="M308.066 117.9C308.755 116.174 311.547 116.988 310.852 118.731L294.947 158.596C294.259 160.322 291.467 159.507 292.161 157.764L308.066 117.9" fill="#7B97C2"/><path d="M283.628 162.265C282.874 161.852 282.851 160.937 283.156 160.254L285.529 154.936C285.871 154.168 286.9 154.164 287.526 154.47L299.492 160.322C300.01 160.576 300.221 160.988 300.217 161.412 300.483 161.73 300.613 162.167 300.464 162.688 299.72 165.274 298.289 167.979 295.176 167.593 294.243 167.478 293.303 167.109 292.385 166.681L288.395 173.978C288.001 174.699 287.061 174.799 286.398 174.442 285.273 173.837 284.148 173.231 283.022 172.627 282.451 172.318 282.24 171.564 282.392 170.972 283.086 168.279 284.261 165.734 285.86 163.459 285.113 163.068 284.368 162.672 283.627 162.266" fill="#DD8D00"/><path d="M196.514 187.558C202.006 183.106 209.989 183.663 214.683 188.474 219.454 191.637 222.827 196.681 223.141 202.615 223.547 210.288 218.704 217.394 211.067 219.174 203.034 221.047 195.606 215.429 192.347 208.432 189.052 201.358 190.266 192.623 196.514 187.558" fill="#C3CDDD"/><path d="M210.629 210.658C210.421 206.734 211.396 202.838 213.427 199.474 209.526 198.738 205.81 197.233 202.496 195.047 202.829 199.108 202.369 203.195 201.14 207.079 204.517 207.602 207.749 208.821 210.629 210.66M198.043 207.722C199.789 203.04 200.287 198.25 199.552 193.312 199.502 192.969 199.57 192.679 199.711 192.446 199.664 191.425 200.82 190.41 201.844 191.228 205.948 194.5 210.69 196.494 215.915 197.107 216.925 197.225 217.476 198.439 216.854 199.26 213.715 203.415 212.648 208.417 213.761 213.486 214.066 214.88 212.328 215.406 211.474 214.631 211.459 214.619 211.444 214.613 211.428 214.6 207.856 211.674 203.764 209.989 199.152 209.571 198.257 209.49 197.743 208.524 198.043 207.722" fill="#7B97C2"/><path d="M204.498 217.915C213.219 219.616 220.865 212.657 221.51 204.197 222.175 195.478 215.899 188.425 207.91 185.923 200.702 185.003 193.239 189.739 191.685 197.023 189.877 205.502 195.604 216.181 204.498 217.915M190.604 192.142C193.875 186.065 200.664 182.731 207.368 183.19 207.612 183.112 207.885 183.098 208.181 183.179 208.336 183.222 208.487 183.276 208.64 183.321 209.393 183.428 210.142 183.582 210.88 183.787 211.307 183.907 211.56 184.157 211.675 184.456 217.786 187.231 222.635 192.567 223.938 199.298 225.42 206.955 222.084 215.102 215.065 218.837 199.214 227.272 182.685 206.845 190.604 192.142" fill="#7B97C2"/><path d="M234.724 111.835C249.344 108.869 267.254 116.034 270.338 130.472 271.23 134.644 267.325 131.937 266.662 131.94 248.657 132.015 230.83 135.512 214.131 142.247 213.247 142.605 212.269 141.946 212.174 141.032 210.623 126.165 219.93 114.836 234.725 111.835" fill="#C3CDDD"/><path d="M243.244 120.035C243.507 119.808 243.868 119.685 244.315 119.76 252.907 121.208 261.335 123.502 269.475 126.609 270.015 126.813 270.247 127.219 270.264 127.647 270.274 127.687 270.29 127.725 270.298 127.768L271.907 137.102C272.031 137.826 271.364 138.515 270.674 138.581 251.571 140.395 232.672 143.938 214.209 149.167 213.344 149.412 212.485 148.954 212.368 148.023L211.33 139.839C211.204 138.845 231.997 124.163 243.244 120.035" fill="#7B97C2"/><path d="M267.941 128.5C268.752 128.424 269.265 129.006 269.427 129.725L270.381 134.002C270.54 134.719 269.816 135.419 269.148 135.481 268.338 135.557 267.824 134.975 267.664 134.256L266.709 129.979C266.549 129.262 267.273 128.563 267.941 128.5M263.73 128.356 264.885 134.523C265.206 136.24 262.487 136.484 262.167 134.777L261.013 128.611C260.692 126.894 263.411 126.65 263.73 128.357M256.176 126.055 258.119 134.6C258.507 136.299 255.786 136.537 255.402 134.854L253.459 126.309C253.072 124.61 255.793 124.372 256.176 126.055M249.964 124.454C250.3 127.962 250.886 131.419 251.765 134.832 252.196 136.51 249.647 137.487 249.211 135.796 248.267 132.157 247.61 128.45 247.247 124.708 247.081 122.968 249.797 122.712 249.965 124.454M242.966 126.201 244.199 137.002C244.397 138.74 241.68 138.994 241.48 137.256L240.249 126.455C240.05 124.717 242.768 124.464 242.966 126.201M236.146 130.046 237.035 139.552C237.168 140.978 234.303 141.245 234.17 139.82L233.282 130.314C233.104 128.412 235.969 128.145 236.146 130.046M227.238 134.488C227.136 132.746 229.853 132.484 229.956 134.234L230.323 140.477C230.425 142.219 227.71 142.481 227.607 140.731ZM223.789 136.954 224.366 143.133C224.499 144.559 222.113 144.782 221.979 143.356L221.402 137.177C221.224 135.276 223.611 135.053 223.789 136.954M216.646 139.57C217.433 139.497 218 140.07 218.131 140.795L218.664 143.748C218.794 144.471 218.122 145.163 217.432 145.227 216.645 145.301 216.077 144.727 215.946 144.002L215.414 141.049C215.283 140.326 215.957 139.634 216.646 139.57" fill="#C3CDDD"/></g></g></svg>