<svg width="173.055" height="128.598" viewBox="0 0 173.055 128.598" xmlns="http://www.w3.org/2000/svg" xmlns:xlink="http://www.w3.org/1999/xlink" overflow="hidden"><g transform="translate(-183.039 -108.892)"><g stroke-miterlimit="10"><path d="M204.166 214.629C195.805 210.297 190.465 205.705 187.298 193.009 186.832 191.141 188.648 191.266 189.404 191.561 195.925 194.108 200.096 185.537 203.911 181.873 207.914 178.03 212.403 177.838 217.637 178.462 220.92 178.854 223.862 178.92 227.017 177.787 229.749 176.807 232.289 175.358 235.029 174.398 239.157 172.948 243.697 172.709 247.352 175.408 247.727 175.684 247.855 176.036 247.825 176.378 250.522 180.245 250.144 185.523 247.405 189.315 244.079 193.917 238.713 195.499 233.423 196.489 230.171 197.098 226.643 197.695 224.203 200.153 222.101 202.269 221.033 205.208 219.283 207.594 216.08 211.966 210.971 214.508 205.631 214.793 205.43 214.805 205.252 214.774 205.096 214.715 204.822 214.81 204.504 214.804 204.166 214.628" fill="#C93A27" fill-rule="evenodd"/><path d="M266.181 212.171C266.943 212.04 267.757 212.352 267.973 213.175 270.06 221.142 271.779 229.791 266.399 236.848 265.682 237.79 264.277 237.177 263.959 236.237 261.665 229.47 259.63 222.617 257.861 215.694 257.766 215.353 257.804 214.988 257.967 214.674 257.939 214.09 258.242 213.537 258.999 213.407L266.181 212.17" fill="#FFE2DC" fill-rule="evenodd"/><path d="M269.309 223.566C270.341 223.271 271.036 224.224 271.027 225.111 271.033 225.136 271.043 225.155 271.048 225.18 271.869 229.05 270.995 234.053 267.688 236.605 262.994 240.227 260.76 231.764 260.051 228.647 259.993 228.394 260.001 228.163 260.053 227.954 260.008 227.759 259.999 227.559 260.027 227.364 259.983 226.764 260.245 226.164 260.94 225.964L269.31 223.566" fill="#401F0F" fill-rule="evenodd"/><path d="M244.602 211.758C245.315 211.949 245.923 212.741 245.685 213.512 243.504 220.586 241.322 227.659 239.142 234.733 238.794 235.858 237.146 236.366 236.498 235.173 232.738 228.258 231.769 220.324 233.87 212.717 233.879 212.684 233.894 212.659 233.904 212.627 233.538 211.77 233.919 210.576 235.111 210.566 238.314 210.529 241.507 210.931 244.602 211.758" fill="#FFE2DC" fill-rule="evenodd"/><path d="M243.355 226.141C242.729 228.815 242.388 231.871 241.3 234.399 240.546 236.147 239 237.594 236.978 237.299 234.85 236.988 233.656 235.126 232.929 233.271 231.962 230.81 231.186 228.242 231.032 225.59 231.004 225.266 231.093 224.943 231.283 224.679 231.458 224.21 231.844 223.832 232.383 223.766 232.559 223.677 232.764 223.619 233.009 223.619 236.113 223.61 239.211 223.867 242.271 224.387 243.046 224.518 243.527 225.407 243.355 226.14" fill="#401F0F" fill-rule="evenodd"/><path d="M228.296 219.085C227.472 219.004 227.05 218.134 227.115 217.397 227.403 214.139 227.938 206.549 229.601 203.739 230.088 202.914 231.026 202.838 231.691 203.177 231.869 203.124 232.064 203.099 232.279 203.119 238.978 203.748 245.669 203.724 252.364 203.078 252.768 202.919 253.243 202.989 253.634 203.229 253.643 203.228 253.649 203.224 253.659 203.224L272.903 201.327C273.986 201.22 274.516 202.018 274.416 202.86 274.42 202.874 274.419 202.812 274.422 202.827 275.183 206.256 276.364 214.247 277.124 217.677 277.295 218.449 276.525 219.184 275.821 219.254 269.162 219.914 262.501 220.567 255.842 221.227 255.222 221.288 254.557 220.894 254.345 220.293 253.709 218.487 253.191 216.641 252.795 214.768L250.738 220.249C250.426 221.082 249.672 221.239 249.032 220.995 248.842 221.059 248.628 221.087 248.392 221.063L228.296 219.085" fill="#C93A27" fill-rule="evenodd"/><path d="M201.837 197.466C199.182 196.052 198.354 192.901 199.391 190.146 200.493 187.22 203.357 185.079 205.886 183.458 211.846 179.64 219.009 178.489 225.902 179.75 226.489 179.857 226.807 180.205 226.912 180.626 227.401 181.059 227.665 181.691 227.629 182.342 227.984 183.52 231.881 188.17 221.506 188.413 214.369 188.581 208.841 192.434 203.674 197.313Z" fill="#FFE2DC"/><path d="M228.526 189.99 225.326 181.184C225.076 180.497 225.45 179.506 226.208 179.319 229.565 178.489 232.948 177.996 236.405 177.889 236.828 177.876 237.165 178.017 237.412 178.241 237.664 178.004 238.002 177.869 238.378 177.936L242.095 178.6C242.313 178.64 242.489 178.725 242.635 178.837 243.043 178.947 243.384 179.265 243.439 179.824 243.802 183.516 247.039 178.639 250.85 178.455 254.792 178.265 257.043 182.645 256.758 178.767 256.722 178.27 256.974 177.637 257.498 177.475L260.327 176.598C260.738 176.282 261.291 176.197 261.681 176.465 261.99 176.178 262.407 176.037 262.827 176.077L270.14 176.647C271.01 176.448 272.186 177.112 272.091 178.323L271.399 187.178C271.359 187.679 272.536 196.062 273.906 199.888 274.174 200.638 273.753 201.472 272.936 201.585 258.509 203.561 243.913 203.995 229.394 202.878 228.673 202.823 228.361 202.278 228.381 201.718 228.228 201.498 228.16 201.209 228.246 200.853 229.044 197.546 228.686 190.433 228.526 189.991" fill="#C3CDDD" fill-rule="evenodd"/><path d="M222.524 171.727C217.723 163.907 219.496 154.142 219.403 145.447 219.395 144.698 219.857 144.218 220.411 144.028 220.463 143.376 220.874 142.728 221.677 142.583 238.722 139.511 255.941 137.551 273.174 138.067 273.433 138.074 273.767 140.544 273.961 140.648 274.717 140.75 275.401 141.358 275.19 142.325 273.472 150.201 276.709 158.211 274.985 166.079 273.445 173.11 267.693 177.945 261.075 180.047 254.044 182.279 245.837 182.383 238.587 181.187 232.288 180.15 225.994 177.38 222.524 171.727" fill="#FFE2DC" fill-rule="evenodd"/><path d="M256.636 174.196C254.304 170.344 249.069 170.119 246.712 174.135 245.769 175.744 243.172 174.439 244.125 172.815 247.516 167.032 255.51 166.729 259.049 172.574 260.021 174.178 257.61 175.804 256.637 174.196" fill="#050000" fill-rule="evenodd"/><path d="M214.793 153.222C214.237 152.966 213.833 152.41 213.994 151.627 217.064 136.696 218.009 125.268 245.184 122.7 269.464 120.405 278.312 134.238 279.3 148.698 279.417 150.403 276.021 150.76 275.467 150.723 270.912 150.422 264.392 148.38 257.584 141.532 247.962 151.977 226.843 156.744 215.487 153.862 215.123 153.77 214.921 153.48 214.793 153.22" fill-rule="evenodd"/><path d="M249.763 163.214C250.525 163.358 252.887 163.943 253.161 162.703 253.293 162.106 252.476 161.599 252.095 161.268 250.856 160.188 249.875 159.122 250.082 157.355 250.302 155.491 253.146 156.068 252.927 157.929 252.865 158.452 254.47 159.461 254.801 159.803 255.621 160.654 256.216 161.713 256.066 162.941 255.647 166.368 251.806 166.572 249.195 166.079 247.362 165.733 247.925 162.867 249.763 163.214" fill="#F4D7D0" fill-rule="evenodd"/><path d="M227.886 206.914C226.575 206.927 227.201 200.958 227.634 199.789 227.797 199.349 228.392 198.97 228.86 198.975 243.541 199.155 258.219 198.406 272.805 196.732 273.426 196.661 273.863 196.928 274.106 197.325 274.225 197.413 274.328 197.52 274.41 197.643 275.127 198.783 276.118 201.534 275.253 203.489 274.563 205.05 265.71 205.198 261.848 205.474 251.207 206.237 238.816 206.806 227.886 206.914" fill="#401F0F" fill-rule="evenodd"/><path d="M253.355 204.567 253.448 204.568C254.697 204.689 256.2 204.29 257.45 204.163L260.48 203.856 260.363 198.173C257.957 198.257 255.573 198.504 253.203 198.917L253.237 200.178 255.952 199.959C257.813 199.809 258.022 202.722 256.159 202.872L253.365 203.097C253.383 203.384 253.374 203.672 253.338 203.957L253.355 204.567M251.507 207.161C250.484 206.473 250.485 205.274 250.445 204.166 250.368 202.048 250.332 199.928 250.275 197.809 250.252 196.945 250.817 196.409 251.618 196.249 254.755 195.616 257.944 195.272 261.144 195.222 261.281 195.221 261.417 195.238 261.549 195.273 262.062 195.22 262.598 195.402 262.878 195.878L263.044 196.158C263.258 196.524 263.325 196.958 263.232 197.372 263.235 197.409 263.246 197.439 263.247 197.479L263.403 205.07C263.419 205.877 262.874 206.548 262.06 206.63L255.657 207.279C254.409 207.405 252.652 207.933 251.507 207.161" fill="#DD8D00" fill-rule="evenodd"/><path d="M340.203 194.491C340.518 194.436 340.781 194.478 340.999 194.582 341.348 194.361 341.796 194.324 342.277 194.626L355.271 202.787C356.11 203.313 356.51 204.659 355.475 205.289L343.947 212.301C343.818 212.379 343.689 212.43 343.56 212.466 343.248 212.75 342.83 212.885 342.411 212.839L303.527 209.296C303.302 209.279 303.085 209.206 302.896 209.084 302.094 209.054 301.281 208.437 301.432 207.408L302.366 201.074C302.397 200.839 302.488 200.615 302.631 200.425 302.625 199.742 303.033 199.065 303.915 199.001 316.081 198.124 328.193 196.619 340.203 194.491" fill="#C3CDDD" fill-rule="evenodd"/><path d="M344.347 202.601C346.205 202.616 346.459 205.513 344.584 205.498L301.664 205.146C299.806 205.131 299.552 202.233 301.428 202.248L344.347 202.601" fill="#7B97C2" fill-rule="evenodd"/><path d="M294.137 195.93C294.248 195.078 295.092 194.724 295.84 194.76L301.657 195.041C302.496 195.081 302.873 196.039 302.815 196.733L301.705 210.007C301.656 210.582 301.349 210.928 300.952 211.078 300.752 211.442 300.393 211.721 299.853 211.771 297.173 212.017 294.134 211.665 293.363 208.624 293.132 207.714 293.134 206.704 293.2 205.693L284.953 204.623C284.138 204.518 283.704 203.678 283.795 202.931 283.951 201.662 284.107 200.395 284.261 199.126 284.342 198.482 284.968 198.011 285.575 197.938 288.336 197.608 291.134 197.779 293.835 198.443 293.928 197.605 294.027 196.767 294.136 195.929" fill="#DD8D00" fill-rule="evenodd"/><path d="M290.883 199.286C290.333 202.124 287.679 203.777 284.863 203.606 281.874 203.426 279.106 201.406 276.911 199.544 271.738 195.158 268.67 188.91 267.887 182.226 267.82 181.657 268.051 181.267 268.407 181.05 268.666 180.48 269.171 180.059 269.778 179.906 270.757 179.247 272.139 176.643 273.174 177.135 273.311 177.166 276.307 182.071 277.061 183.802 279.797 190.082 284.304 194.286 290.227 197.644Z" fill="#FFE2DC"/><path d="M297.753 134.433C298.23 134.281 298.352 134.684 298.352 134.684 299.992 137.919 301.805 141.497 303.445 144.732 305.105 148.009 306.768 151.278 308.329 154.604 309.888 157.923 311.446 161.242 313.005 164.561 314.574 167.904 315.564 171.461 316.695 174.974 317.904 178.728 318.172 181.963 318.284 185.894 318.371 188.956 318.12 191.973 317.617 194.989 317.617 194.989 317.535 195.483 317.042 195.4 316.549 195.318 316.631 194.825 316.631 194.825 317.123 191.872 317.37 188.92 317.284 185.922 317.174 182.071 316.925 178.952 315.743 175.281 314.626 171.808 313.65 168.289 312.099 164.986 310.541 161.667 308.983 158.348 307.424 155.029 305.867 151.713 304.209 148.452 302.553 145.184 300.913 141.949 299.273 138.713 297.633 135.477L297.46 135.136C297.46 135.136 297.277 134.586 297.753 134.433Z" stroke-width="0.5" fill="#A8A8A8"/><path d="M314.13 138.662C314.596 138.481 314.722 138.843 314.722 138.843 315.087 139.368 315.692 140.238 316.057 140.763 318.149 143.774 320.241 146.785 322.334 149.796 324.473 152.875 325.899 156.123 327.44 159.534 328.955 162.89 330.694 166.156 331.509 169.753 332.318 173.329 333.296 176.912 333.833 180.539 334.295 183.657 334.498 186.601 334.498 189.751 334.498 189.751 334.498 190.251 333.998 190.251 333.498 190.251 333.498 189.751 333.498 189.751 333.498 186.647 333.299 183.758 332.844 180.686 332.311 177.083 331.338 173.525 330.533 169.974 329.734 166.445 328.016 163.239 326.529 159.946 325.013 156.589 323.616 153.394 321.513 150.367 319.42 147.356 317.328 144.345 315.235 141.334 314.87 140.809 314.505 140.283 314.14 139.758L313.901 139.414C313.901 139.414 313.664 138.843 314.13 138.662Z" stroke-width="0.5" fill="#A8A8A8"/><path d="M193.063 178.058C199.167 174.491 206.973 176.252 210.882 181.72 215.118 185.57 217.687 191.067 217.097 196.98 216.334 204.626 210.47 210.915 202.651 211.516 194.427 212.148 187.937 205.469 185.777 198.058 183.594 190.566 186.119 182.116 193.063 178.058" fill="#C3CDDD" fill-rule="evenodd"/><path d="M203.275 203.032C203.665 199.122 205.22 195.419 207.737 192.402 203.993 191.082 200.549 189.031 197.604 186.368 197.318 190.432 196.243 194.402 194.439 198.055 197.698 199.084 200.707 200.78 203.275 203.034M191.28 198.22C193.716 193.857 194.935 189.199 194.958 184.206 194.96 183.859 195.072 183.583 195.246 183.374 195.355 182.358 196.651 181.53 197.539 182.494 201.099 186.351 205.484 189.041 210.556 190.44 211.536 190.71 211.896 191.993 211.157 192.71 207.424 196.341 205.611 201.123 205.942 206.302 206.032 207.727 204.234 207.983 203.507 207.087 203.494 207.073 203.48 207.065 203.467 207.05 200.38 203.615 196.591 201.329 192.096 200.216 191.223 200 190.862 198.968 191.28 198.22" fill="#7B97C2" fill-rule="evenodd"/><path d="M196.349 209.275C204.711 212.279 213.324 206.561 215.245 198.296 217.225 189.779 212.092 181.856 204.575 178.171 197.59 176.168 189.495 179.717 186.854 186.681 183.78 194.787 187.821 206.212 196.349 209.275M186.526 181.692C190.681 176.182 197.897 173.916 204.454 175.387 204.707 175.347 204.979 175.375 205.259 175.5 205.406 175.566 205.547 175.642 205.691 175.71 206.419 175.93 207.136 176.195 207.835 176.51 208.239 176.693 208.451 176.979 208.519 177.292 214.138 180.962 218.121 186.972 218.388 193.822 218.691 201.616 214.158 209.162 206.654 211.789 189.706 217.722 176.468 195.024 186.526 181.692" fill="#7B97C2" fill-rule="evenodd"/><path d="M241.304 109.077C256.137 107.484 273.302 116.285 275.03 130.947 275.53 135.184 271.893 132.125 271.233 132.067 253.299 130.466 235.224 132.289 217.971 137.441 217.057 137.715 216.145 136.968 216.135 136.049 215.974 121.102 226.295 110.689 241.305 109.077" fill="#C3CDDD" fill-rule="evenodd"/><path d="M249.024 118.034C249.307 117.833 249.678 117.744 250.116 117.86 258.536 120.101 266.714 123.169 274.53 127.02 275.048 127.274 275.242 127.7 275.219 128.127 275.225 128.168 275.237 128.207 275.241 128.251L275.975 137.694C276.031 138.427 275.303 139.051 274.61 139.052 255.421 139.08 236.274 140.85 217.405 144.338 216.521 144.502 215.708 143.966 215.678 143.028L215.406 134.783C215.373 133.781 237.442 121.098 249.024 118.034" fill="#7B97C2" fill-rule="evenodd"/><path d="M272.827 128.761C273.641 128.761 274.098 129.388 274.192 130.119L274.744 134.466C274.836 135.195 274.05 135.824 273.379 135.824 272.565 135.824 272.108 135.197 272.015 134.466L271.462 130.119C271.37 129.39 272.156 128.761 272.827 128.761M268.647 128.226 269.223 134.473C269.383 136.213 266.653 136.203 266.494 134.473L265.918 128.227C265.758 126.487 268.488 126.497 268.647 128.227M261.34 125.232 262.48 133.92C262.708 135.648 259.976 135.632 259.751 133.92L258.611 125.232C258.384 123.504 261.115 123.52 261.34 125.232M255.304 123.06C255.312 126.584 255.574 130.08 256.132 133.56 256.405 135.271 253.776 136.007 253.499 134.282 252.897 130.571 252.588 126.819 252.575 123.06 252.572 121.312 255.3 121.31 255.305 123.06M248.174 124.148 248.396 135.017C248.432 136.766 245.703 136.766 245.666 135.017L245.445 124.148C245.409 122.399 248.138 122.4 248.174 124.148M241.026 127.342 241.026 136.889C241.026 138.321 238.149 138.321 238.149 136.889L238.149 127.342C238.149 125.432 241.026 125.432 241.026 127.342M231.743 130.936C231.803 129.192 234.533 129.184 234.473 130.936L234.257 137.186C234.197 138.93 231.469 138.938 231.529 137.186ZM228.079 133.07 228.079 139.276C228.079 140.708 225.682 140.708 225.682 139.276L225.682 133.07C225.682 131.161 228.079 131.161 228.079 133.07M220.724 135.01C221.514 135.01 222.026 135.634 222.089 136.368L222.345 139.358C222.407 140.09 221.673 140.716 220.98 140.716 220.19 140.716 219.678 140.092 219.615 139.358L219.36 136.368C219.297 135.636 220.032 135.01 220.724 135.01" fill="#C3CDDD" fill-rule="evenodd"/><path d="M230.713 160.22C238.691 161.034 239.77 158.647 232.028 155.511 228.925 154.255 231.845 153.669 234.976 154.937 246.126 159.451 245.771 163.42 233.665 162.184 230.342 161.845 227.384 159.88 230.713 160.22" fill="#050000" fill-rule="evenodd"/><path d="M267.165 154.099C260.636 157.658 261.165 160.03 268.828 158.35 271.898 157.677 270.009 159.649 266.91 160.328 255.876 162.748 253.902 159.558 263.809 154.158 266.528 152.675 269.89 152.614 267.165 154.098" fill="#050000" fill-rule="evenodd"/></g></g></svg>