<svg viewBox="0 0 42.65 102.35" xmlns="http://www.w3.org/2000/svg" xmlns:xlink="http://www.w3.org/1999/xlink" overflow="hidden"><defs></defs><g id="Layer_2"><g id="Layer_1-2"><path d="M19.72 99.53 25.4 89.69C26.4052 87.949 25.8087 85.7228 24.0677 84.7177 23.515 84.3986 22.8882 84.2304 22.25 84.23L10.89 84.23C8.87968 84.2313 7.25105 85.862 7.25233 87.8723 7.25274 88.5105 7.42092 89.1373 7.74 89.69L13.42 99.53C14.4274 101.27 16.6543 101.863 18.394 100.856 18.9442 100.537 19.4014 100.08 19.72 99.53Z" stroke="#CF8B17" stroke-width="2" stroke-linejoin="round" fill="#FFAB19"/><path d="M41.65 1 11.35 1C10.4004 0.999205 9.49237 1.38989 8.84 2.08L2 9.37C0.691082 10.747 0.746293 12.9244 2.12332 14.2333 2.76439 14.8427 3.61553 15.1817 4.5 15.18L22.5 15.18C22.859 15.18 23.15 14.889 23.15 14.53L23.15 10.53C23.15 10.1749 23.4349 9.88546 23.79 9.88L37.79 9.88C38.149 9.88 38.44 10.171 38.44 10.53L38.44 14.53C38.44 14.8851 38.7249 15.1745 39.08 15.18L41.77 15.18Z" stroke="#CF8B17" stroke-width="2" stroke-linejoin="round" fill="#FFAB19"/><rect x="25.6" y="13.83" width="10.2" height="27.69" stroke="#CF8B17" stroke-width="2" stroke-linejoin="round" fill="#FFAB19" transform="matrix(-1 1.22465e-16 -1.22465e-16 -1 61.4 55.36)"/><rect x="11.47" y="38.03" width="10.2" height="39.49" stroke="#CF8B17" stroke-width="2" stroke-linejoin="round" fill="#FFAB19" transform="matrix(-1 1.22465e-16 -1.22465e-16 -1 33.14 115.56)"/></g></g></svg>